<?xml version="1.0" encoding="UTF-8" standalone="no"?>
<svg
   xmlns:dc="http://purl.org/dc/elements/1.1/"
   xmlns:cc="http://creativecommons.org/ns#"
   xmlns:rdf="http://www.w3.org/1999/02/22-rdf-syntax-ns#"
   xmlns:svg="http://www.w3.org/2000/svg"
   xmlns="http://www.w3.org/2000/svg"
   xmlns:sodipodi="http://sodipodi.sourceforge.net/DTD/sodipodi-0.dtd"
   xmlns:inkscape="http://www.inkscape.org/namespaces/inkscape"
   inkscape:version="1.0 (4035a4fb49, 2020-05-01)"
   sodipodi:docname="Bandera_de_La_Matanza.svg"
   viewBox="0 0 308 216"
   height="216"
   width="308"
   id="svg10"
   version="1.1">
  <metadata
     id="metadata16">
    <rdf:RDF>
      <cc:Work
         rdf:about="">
        <dc:format>image/svg+xml</dc:format>
        <dc:type
           rdf:resource="http://purl.org/dc/dcmitype/StillImage" />
        <dc:title></dc:title>
      </cc:Work>
    </rdf:RDF>
  </metadata>
  <defs
     id="defs14" />
  <sodipodi:namedview
     inkscape:current-layer="g18"
     inkscape:window-maximized="1"
     inkscape:window-y="-8"
     inkscape:window-x="-8"
     inkscape:cy="137.56746"
     inkscape:cx="144.71249"
     inkscape:zoom="1.6886246"
     showgrid="false"
     id="namedview12"
     inkscape:window-height="705"
     inkscape:window-width="1366"
     inkscape:pageshadow="2"
     inkscape:pageopacity="0"
     guidetolerance="10"
     gridtolerance="10"
     objecttolerance="10"
     borderopacity="1"
     bordercolor="#666666"
     pagecolor="#ffffff" />
  <g
     transform="translate(-520.23932,1.685201)"
     id="g18"
     inkscape:label="Image"
     inkscape:groupmode="layer">
    <g
       id="g879">
      <g
         id="g22"
         transform="translate(74.955745,22.612348)">
        <path
           style="fill:#ffffff;fill-opacity:1;stroke-width:1.73205"
           d="m 445.28357,-24.297549 h 308 V 191.70245 h -308 z"
           id="path32"
           sodipodi:nodetypes="ccccc" />
        <path
           style="fill:#330066;fill-opacity:1"
           d="m 445.28357,-24.297549 h 308 V 119.70245 h -308 z"
           id="path24"
           sodipodi:nodetypes="ccccc" />
        <path
           style="fill:#ffff00;fill-opacity:1"
           d="m 542.78357,119.70245 c 0,0 -2.79269,-1.89099 -11,-1.94503 -7.15,-0.0471 -13.57385,-0.44978 -14.27522,-0.89488 -1.32848,-0.8431 17.4812,-7.20478 21.27522,-7.19557 1.1,0.003 2.60701,-0.37982 3.34891,-0.84998 0.94925,-0.60157 0.31266,-1.04925 -2.14855,-1.51097 -1.92361,-0.36087 -4.6266,-1.54431 -6.00665,-2.62985 -1.38004,-1.08555 -3.1132,-1.98061 -3.85144,-1.98903 -1.01766,-0.0116 -0.97951,-0.24975 0.15773,-0.98469 0.82499,-0.53316 4.06094,-0.97627 7.19098,-0.98469 3.13004,-0.008 5.95287,-0.43906 6.27296,-0.956971 0.32009,-0.51792 -2.01585,-1.688698 -5.19098,-2.601738 -6.31551,-1.81609 -11.36145,-4.09352 -18.27296,-8.24731 -4.07512,-2.44912 -4.27355,-2.73671 -2.10165,-3.04588 1.31909,-0.18776 6.58862,0.62689 11.71005,1.81035 5.12143,1.18345 10.9952,2.011 13.05282,1.83899 l 3.74113,-0.31275 -6.19098,-4.5 c -3.40504,-2.475 -6.19324,-4.725 -6.196,-5 -0.0122,-1.21067 8.46358,-0.82672 11.712,0.53055 1.96884,0.82264 3.79836,1.27704 4.06561,1.00979 1.02364,-1.02364 -4.85097,-7.339974 -8.38749,-9.018163 -3.67646,-1.744595 -12.40549,-9.123304 -12.40549,-10.486447 0,-1.027428 13.77066,2.548685 15.79311,4.101323 0.93879,0.720711 3.39569,2.784711 5.45977,4.586666 6.84057,5.971851 8.04701,3.05524 1.74712,-4.223719 -2.2,-2.541901 -4,-5.526931 -4,-6.6334 0,-2.000292 0.015,-1.999945 2.63486,0.06082 1.44916,1.139919 3.27152,2.07258 4.04966,2.07258 0.77814,0 2.74244,0.686556 4.36514,1.52568 3.7818,1.955648 3.72407,0.841633 -0.23968,-4.625642 -1.75451,-2.420021 -4.68584,-7.998312 -6.51409,-12.396203 l -3.32406,-7.996165 10.28115,10.246165 c 5.65464,5.635391 10.58675,10.246165 10.96023,10.246165 0.37349,0 -0.19669,-2.545448 -1.26707,-5.65655 -1.07038,-3.111103 -1.94614,-6.961512 -1.94614,-8.556465 v -2.899915 l 4.01153,3.306465 c 2.20636,1.818556 4.2755,4.300507 4.59811,5.515447 0.74933,2.821857 3.39036,5.218275 3.39036,3.076334 0,-3.242886 -2.95067,-20.495824 -4.01502,-23.476368 -0.62674,-1.755078 -0.99226,-4.184833 -0.81226,-5.399454 0.26463,-1.78565 1.21434,-0.841125 4.96118,4.934069 3.58341,5.523283 4.79185,8.447571 5.3306,12.899454 0.69431,5.737366 2.70298,10.256983 4.55855,10.256983 0.53732,0 0.98309,-2.8125 0.99059,-6.25 0.008,-3.4375 0.28501,-7.2625 0.61665,-8.5 0.66192,-2.469944 2.36971,-3.08177 2.36971,-0.848962 0,2.792332 5.72764,14.84867 6.47766,13.635101 0.40954,-0.662654 0.82437,-4.654372 0.92183,-8.870483 0.13529,-5.852619 0.70748,-8.611713 2.41926,-11.665656 1.23312,-2.2 2.62169,-5.35 3.0857,-7 l 0.84365,-3 1.22285,3 c 0.85861,2.106402 0.98102,5.085061 0.41092,10 -1.00147,8.63384 -1.00929,18.205917 -0.0157,19.199523 1.02341,1.023412 2.45103,-1.409372 3.74859,-6.387937 0.6004,-2.303627 1.8969,-4.917173 2.88112,-5.807879 1.69858,-1.537186 1.82504,-1.265524 2.48911,5.347061 l 0.69962,6.966526 4.78633,-5.285222 c 2.76612,-3.05445 5.47999,-7.342182 6.42979,-10.158647 1.69957,-5.039795 5.05752,-10.248484 5.99965,-9.306362 0.29545,0.295451 -0.5631,3.213728 -1.90787,6.48506 -1.42438,3.464959 -2.45497,7.989384 -2.46879,10.838346 -0.0145,2.977505 -0.87402,6.592988 -2.19747,9.242938 -1.19555,2.393858 -1.83785,4.688349 -1.42734,5.098869 0.41053,0.41052 3.20492,-1.895091 6.20977,-5.12358 3.00484,-3.228489 5.68344,-5.649882 5.95246,-5.380873 0.26901,0.269009 -0.35108,2.465298 -1.37796,4.880642 -1.02688,2.415344 -2.14329,6.130774 -2.48091,8.256511 l -0.61386,3.864975 2.20578,-1.864975 c 1.21319,-1.025737 2.56077,-2.418749 2.99462,-3.095582 0.43387,-0.676833 2.68387,-2.342756 5,-3.70205 2.31615,-1.359294 6.21736,-4.518021 8.66938,-7.019394 5.96746,-6.08759 8.30712,-5.956756 3.61321,0.20205 -1.99112,2.6125 -4.47873,6.325 -5.52802,8.25 -1.0493,1.925 -3.73832,5.686498 -5.97561,8.358884 -3.80784,4.548384 -5.15309,7.241621 -3.23393,6.474449 0.45864,-0.183333 3.35695,-1.672521 6.4407,-3.309307 3.08375,-1.636786 5.85541,-2.727388 6.15924,-2.423561 1.1212,1.121199 -3.37855,8.553335 -5.86428,9.685905 -2.83279,1.2907 -3.5014,4.21363 -0.96388,4.21363 0.88311,0 3.02061,-1.19319 4.75,-2.65154 4.46629,-3.766275 8.80835,-5.34846 14.678,-5.34846 2.80382,0 5.96827,-0.465833 7.03212,-1.035184 2.81426,-1.506149 2.36728,0.246145 -0.84876,3.327304 -1.53066,1.46646 -5.39178,3.56384 -8.58027,4.66084 -5.03175,1.73118 -15.63671,8.31044 -15.63671,9.70093 0,0.26596 3.55527,0.17343 7.90058,-0.20562 9.50682,-0.82929 11.83883,0.0856 6.44441,2.52822 -2.11475,0.95758 -4.70223,2.7046 -5.74998,3.88228 -1.04774,1.17768 -2.48368,2.141228 -3.19098,2.141228 -0.7073,0 -1.54584,0.42043 -1.86342,0.93429 -0.64467,1.043101 22.61341,0.706591 24.32618,-0.35196 0.57268,-0.35394 2.24936,-0.3403 3.72597,0.0303 l 2.68474,0.67382 -3.38875,1.741831 c -1.86381,0.95801 -5.17577,2.69578 -7.35991,3.86173 -3.44351,1.83822 -4.98606,2.03525 -11.60938,1.48289 -5.23752,-0.4368 -7.85811,-0.2812 -8.33786,0.49504 -0.39573,0.64032 -0.081,1.13205 0.72451,1.13205 0.78329,0 2.70987,1.0125 4.2813,2.25 1.95077,1.53623 4.76931,2.42585 8.88486,2.80434 l 6.02773,0.55434 -3,1.37155 c -1.79281,0.81964 -5.9857,1.31923 -10.41972,1.24153 -7.80235,-0.13673 -7.51391,2.77825 -7.51391,2.77825 z"
           id="path30"
           sodipodi:nodetypes="csscssssscsssssscscssssssssssssccsssscsssssssscsssssscsssssscsssscsssssscssssssssssssssssssssssssscssssssscsscc" />
        <path
           style="fill:#ff0000;fill-opacity:1;stroke-width:0.99767"
           d="m 599.29305,132.70245 -12.00225,24 v -26 l -20.00376,16 10.99653,-23.5 -24.49906,5 19.24906,-16 -24.23578,-6 24.23578,-6 -19.75,-15.999999 25,5 -10.99653,-23.5 20.00376,16 v -26 l 12.00225,24 12.00226,-24 v 26 l 20.00376,-16 -11.0155,23.5 25.01813,-5 -19.84113,15.999999 24.33722,6 -24.33722,6 19.84113,16 -25.01813,-5 11.0155,23.5 -20.00376,-16 -4e-5,26 z"
           id="path28"
           sodipodi:nodetypes="ccccccccccccccccccccccccccccc" />
        <path
           style="fill:#009933;fill-opacity:1"
           d="m 489.14071,148.84531 c -2.67143,-2.67143 -4.85714,-5.33561 -4.85714,-5.92041 0,-0.58479 2.925,-1.3765 6.5,-1.75935 3.57499,-0.38285 6.5,-0.86763 6.5,-1.07728 0,-0.28843 -5.6415,-8.70111 -8.20876,-12.1862 -0.16632,-0.22579 -0.66683,1.2828 -1.75198,2.26484 -5.6646,5.1264 -13.83064,-1.23513 -16.48338,-12.84094 -0.56821,-2.48591 -0.83172,-2.38919 1.14332,-2.17895 5.71428,0.1822 9.11494,1.28277 11.50556,3.02202 1.83468,1.52124 1.59454,0.41582 0.27911,-3.12696 -0.7841,-2.1118 -1.90188,-5.7365 -2.48395,-8.05489 -0.99888,-3.97857 -1.1929,-4.15394 -3.45537,-3.12309 -6.56605,2.99169 -11.53493,-2.78268 -11.54082,-13.411649 -0.002,-3.7125 0.26881,-6.75 0.60191,-6.75 4.25632,3.42855 8.07851,2.892842 12.39436,9.15212 l 0.011,-5.32606 c 0.006,-2.92933 0.28993,-7.01356 0.63084,-9.07606 0.61974,-3.749479 0.61933,-3.75 -2.95431,-3.75 -4.64424,0 -6.68754,-2.830002 -6.68754,-9.262344 0,-4.422915 2.15989,-10.723627 4.61072,-12.460267 0.82233,0.605507 2.46518,2.791267 3.70774,4.227133 1.71505,1.981859 2.99186,4.682983 4.48819,6.59755 l 2.59667,-5.671879 c 1.42817,-3.119533 2.59668,-6.01125 2.59668,-6.426036 0,-0.414786 -2.68988,-0.729543 -4.34896,-1.061358 -5.91771,-1.183542 -5.00292,-10.350746 0.50637,-17.84221 1.65858,-2.255324 3.31418,-4.092911 3.67909,-4.083523 0.42293,0.01088 0.95705,2.196984 2.47629,4.255671 1.93996,2.628801 2.6989,6.905159 2.6982,8.227263 -9.2e-4,1.737129 0.33266,1.605695 2.53798,-1 0.87515,-1.034029 1.84016,-2.445833 2.58392,-3.735424 0.44305,-0.768209 -0.007,-1.863173 0.21358,-2.438953 0.78346,-2.048079 2.46224,-2.352086 4.02026,-2.129876 2.60534,0.371582 3.04232,2.945057 1.4764,4.960101 -0.39486,0.508117 -0.91709,0.716174 -1.56401,1.069607 -0.14985,0.08187 -1.15966,0.385925 -1.28387,0.533632 -1.0884,0.790472 -9.12225,8.022104 -3.3963,4.883066 1.95361,-0.700531 5.77763,-1.601524 9.98616,-0.05176 1.93292,0.711785 5.41489,0.230828 5.41489,0.64706 0,0.416232 -1.65369,2.587214 -3.67485,4.824404 -6.08626,6.736754 -11.56504,8.559703 -16.12552,5.365422 -2.1986,-1.539964 -2.29697,-1.456054 -4.7225,4.028513 -2.81936,6.375064 -3.16811,8.362557 -1.17752,6.710513 0.71479,-0.593221 2.67621,-1.931433 5.00975,-2.647842 1.74059,-0.53437 6.02259,-0.220595 7.03943,-0.743621 1.67519,-0.861657 1.78126,-0.637496 1.12956,2.3871 -1.05601,4.901082 -3.01277,8.268507 -6.51916,11.218942 -3.2584,2.741766 -8.29827,3.497526 -9.57268,1.435496 -1.20584,-1.9511 -2.23911,2.06808 -2.31623,9.00968 l -0.0703,6.32606 c 3.79822,-5.28001 8.69739,-4.91447 13,-9.09185 v 5.50199 c 0,8.96857 -2.93954,14.029499 -8.89558,15.315299 l -2.88324,0.62244 1.99284,6.46879 c 1.8315,5.94505 2.47166,7.71586 3.70556,5.90647 1.58697,-5.52901 2.96615,-8.64578 7.58042,-11.93408 l 1.72377,3.77941 c 2.82635,6.19685 1.59584,16.08693 -1.76394,17.97559 -1.41767,0.5844 -2.81422,0.79055 -4.62543,0.71769 0,0 1.83929,3.03369 4.31025,6.65916 3.7197,5.45768 4.85535,6.06701 4.85535,2.60511 0,-0.97419 0.16684,-3.74987 1.42481,-5.9926 1.48268,-2.64336 1.73774,-6.03597 2.21391,-6.59608 0.69669,-0.81949 4.61937,3.49925 6.46768,7.1207 3.43221,6.72482 1.7366,14.78984 -3.10946,14.78984 -0.8709,0 -0.39946,0.73347 0.93351,2.42597 l 2.03632,2.31527 -1.97265,1.61588 c 0,0 -3.28059,-3.64132 -3.73357,-3.69465 -1.34913,3.51021 -3.78308,5.30678 -7.44237,5.33753 -3.57525,0 -4.72957,-0.62568 -8.96104,-4.85714 z"
           id="path26"
           sodipodi:nodetypes="csssscsccsssccccssscscsssssssssssssccsscsssssssssccsscsccsccssssssscccccc" />
        <path
           sodipodi:nodetypes="csssscsccsssccccssscscsssssssssssssccsscsssssssssccsscsccsccssssssscccccc"
           id="path26-9"
           d="m 709.42641,148.84528 c 2.67143,-2.67143 4.85714,-5.33561 4.85714,-5.92041 0,-0.58479 -2.925,-1.3765 -6.5,-1.75935 -3.57499,-0.38285 -6.5,-0.86763 -6.5,-1.07728 0,-0.28843 5.6415,-8.70111 8.20876,-12.1862 0.16632,-0.22579 0.66683,1.2828 1.75198,2.26484 5.6646,5.1264 13.83064,-1.23513 16.48338,-12.84094 0.56821,-2.48591 0.83172,-2.38919 -1.14332,-2.17895 -5.71428,0.1822 -9.11494,1.28277 -11.50556,3.02202 -1.83468,1.52124 -1.59454,0.41582 -0.27911,-3.12696 0.7841,-2.1118 1.90188,-5.7365 2.48395,-8.05489 0.99888,-3.97857 1.1929,-4.15394 3.45537,-3.12309 6.56605,2.99169 11.53493,-2.78268 11.54082,-13.411648 0.002,-3.7125 -0.26881,-6.75 -0.60191,-6.75 -4.25632,3.42855 -8.07851,2.89284 -12.39436,9.15212 l -0.011,-5.32606 c -0.006,-2.92933 -0.28993,-7.01356 -0.63084,-9.07606 -0.61974,-3.74948 -0.61933,-3.75 2.95431,-3.75 4.64424,0 6.68754,-2.83 6.68754,-9.262345 0,-4.42291 -2.15989,-10.72362 -4.61072,-12.46026 -0.82233,0.6055 -2.46518,2.79126 -3.70774,4.22713 -1.71505,1.98186 -2.99186,4.68298 -4.48819,6.59755 l -2.59667,-5.67188 c -1.42817,-3.11953 -2.59668,-6.01125 -2.59668,-6.42604 0,-0.41478 2.68988,-0.72954 4.34896,-1.06135 5.91771,-1.18355 5.00292,-10.35075 -0.50637,-17.84221 -1.65858,-2.25533 -3.31417,-4.09291 -3.67908,-4.08353 -0.42293,0.0109 -0.95705,2.19699 -2.47629,4.25567 -1.93996,2.62881 -2.6989,6.90516 -2.6982,8.22727 9.1e-4,1.73713 -0.33267,1.60569 -2.53798,-1 -0.87515,-1.03403 -1.84016,-2.44584 -2.58392,-3.73543 -0.44305,-0.76821 0.007,-1.86317 -0.21358,-2.43895 -0.78346,-2.04808 -2.46224,-2.35209 -4.02026,-2.12988 -2.60534,0.37159 -3.04232,2.94506 -1.4764,4.96011 0.39486,0.50811 0.91709,0.71617 1.56401,1.0696 0.14985,0.0819 1.15966,0.38593 1.28387,0.53363 1.0884,0.79048 9.12225,8.02211 3.3963,4.88307 -1.95361,-0.70053 -5.77763,-1.60152 -9.98616,-0.0518 -1.93292,0.71179 -5.41489,0.23083 -5.41489,0.64706 0,0.41623 1.65368,2.58721 3.67485,4.8244 6.08626,6.73676 11.56503,8.55971 16.12552,5.36543 2.1986,-1.53997 2.29697,-1.45606 4.7225,4.02851 2.81935,6.37506 3.1681,8.36256 1.17751,6.71051 -0.71479,-0.59322 -2.6762,-1.93143 -5.00975,-2.64784 -1.74059,-0.53437 -6.02259,-0.22059 -7.03943,-0.74362 -1.67519,-0.86166 -1.78126,-0.6375 -1.12956,2.3871 1.05601,4.90108 3.01277,8.268505 6.51916,11.218935 3.25841,2.74177 8.29827,3.49753 9.57268,1.4355 1.20584,-1.9511 2.23911,2.06808 2.31623,9.00968 l 0.0703,6.32606 c -3.79822,-5.28001 -8.69739,-4.91447 -13,-9.09185 v 5.50199 c 0,8.96857 2.93954,14.029498 8.89558,15.315298 l 2.88324,0.62244 -1.99284,6.46879 c -1.8315,5.94505 -2.47166,7.71586 -3.70556,5.90647 -1.58696,-5.52901 -2.96615,-8.64578 -7.58042,-11.93408 l -1.72376,3.77941 c -2.82636,6.19685 -1.59584,16.08693 1.76394,17.97559 1.41767,0.5844 2.81422,0.79055 4.62543,0.71769 0,0 -1.83929,3.03369 -4.31025,6.65916 -3.7197,5.45768 -4.85535,6.06701 -4.85535,2.60511 0,-0.97419 -0.16684,-3.74987 -1.42481,-5.9926 -1.48268,-2.64336 -1.73774,-6.03597 -2.21391,-6.59608 -0.69669,-0.81949 -4.61937,3.49925 -6.46768,7.1207 -3.43221,6.72482 -1.7366,14.78984 3.10946,14.78984 0.8709,0 0.39946,0.73347 -0.93351,2.42597 l -2.03632,2.31527 1.97265,1.61588 c 0,0 3.28059,-3.64132 3.73357,-3.69465 1.34913,3.51021 3.78308,5.30678 7.44237,5.33753 3.57525,0 4.72957,-0.62568 8.96104,-4.85714 z"
           style="fill:#009933;fill-opacity:1" />
      </g>
    </g>
  </g>
</svg>
