<?xml version="1.0" encoding="UTF-8" standalone="no"?>
<svg
   width="128"
   height="128"
   viewBox="0 0 100 100"
   version="1.1"
   id="svg8"
   sodipodi:docname="correo.svg"
   inkscape:version="1.4 (e7c3feb100, 2024-10-09)"
   xmlns:inkscape="http://www.inkscape.org/namespaces/inkscape"
   xmlns:sodipodi="http://sodipodi.sourceforge.net/DTD/sodipodi-0.dtd"
   xmlns="http://www.w3.org/2000/svg"
   xmlns:svg="http://www.w3.org/2000/svg">
  <defs
     id="defs8" />
  <sodipodi:namedview
     id="namedview8"
     pagecolor="#ffffff"
     bordercolor="#000000"
     borderopacity="0.25"
     inkscape:showpageshadow="2"
     inkscape:pageopacity="0.0"
     inkscape:pagecheckerboard="0"
     inkscape:deskcolor="#d1d1d1"
     inkscape:zoom="6.4453125"
     inkscape:cx="63.767273"
     inkscape:cy="59.655758"
     inkscape:window-width="1920"
     inkscape:window-height="1029"
     inkscape:window-x="0"
     inkscape:window-y="0"
     inkscape:window-maximized="1"
     inkscape:current-layer="svg8" />
  <path
     fill="#D35400"
     fill-rule="evenodd"
     d="M96.015 38.988H4.006c-1.104 0-2 .897-2 2.005v57.001c0 1.108.896 2.006 2 2.006h92.009a2.003 2.003 0 0 0 2.001-2.006V40.993a2.003 2.003 0 0 0-2.001-2.005"
     clip-rule="evenodd"
     id="path1" />
  <path
     fill="#ECF0F1"
     fill-rule="evenodd"
     d="M5 15.974v82.004C5 99.095 5.896 100 7 100h86.001A2.01 2.01 0 0 0 95 97.979V1.99a2.01 2.01 0 0 0-1.999-2.021l-71.997.008z"
     clip-rule="evenodd"
     id="path2" />
  <path
     d="m40 72l54.997-33L95 45.98L51.028 72z"
     opacity=".1"
     id="path3" />
  <path
     fill="#F39C12"
     fill-rule="evenodd"
     d="M2 97.991c0 1.11.895 2.009 2 2.009h92c1.104 0 2-.899 2-2.009V42L50 71L2 42z"
     clip-rule="evenodd"
     id="path4" />
  <path
     fill="#F1C40F"
     fill-rule="evenodd"
     d="m5 15.974l16.001.01V0z"
     clip-rule="evenodd"
     id="path5" />
  <path
     fill="#F1C40F"
     d="m2 42l.052 54L50 71z"
     id="path6" />
  <path
     fill="#E57E22"
     d="M98 42L50 71l48 25z"
     id="path7" />
  <path
     fill-rule="evenodd"
     d="M98 97.991V96L50 71l47.328 28.482c.409-.367.672-.896.672-1.491m-96 0V96l48-25L2.672 99.482A2 2 0 0 1 2 97.991"
     clip-rule="evenodd"
     opacity=".3"
     id="path8" />
  <g
     id="g1">
    <path
       d="m 54.780967,21.945255 0.498382,-2.212819 h 5.26292 l -3.030166,14.293612 q -0.279094,1.355601 -0.279094,1.794177 0,0.458512 0.219288,0.717671 0.239224,0.259159 0.558189,0.259159 1.076506,0 2.771007,-1.395471 1.714436,-1.415406 2.97036,-3.827578 1.275859,-2.432107 1.275859,-5.30279 0,-2.392237 -0.917024,-4.505379 -0.897088,-2.113142 -2.611524,-3.668095 -1.714436,-1.554954 -4.24622,-2.432107 -2.511848,-0.877154 -5.701496,-0.877154 -3.249455,0 -5.960656,0.857218 -2.711201,0.837283 -4.764537,2.432107 -2.053336,1.574889 -3.428872,3.90732 -1.216053,2.0334 -1.853983,4.505378 -0.63793,2.471977 -0.63793,5.043631 0,3.428872 1.355601,6.279621 1.375536,2.830813 3.967125,4.744602 2.611525,1.933724 6.299556,2.731136 3.68803,0.817348 8.332956,0.3389 3.688031,-0.438576 6.23975,-1.674565 2.571654,-1.235989 4.345896,-3.468743 h 4.246219 q -1.036636,2.133078 -2.711201,3.807643 -1.65463,1.674565 -3.887384,2.810878 -2.232754,1.156247 -5.003761,1.754306 -2.771007,0.598059 -6.040397,0.598059 -4.904084,0 -8.831339,-1.295794 -3.927254,-1.27586 -6.61852,-3.707967 -2.671331,-2.412171 -4.046866,-5.761302 -1.375536,-3.369066 -1.375536,-7.435868 0,-4.246219 1.415406,-7.93425 1.415407,-3.688031 4.066802,-6.399232 2.67133,-2.731137 6.498908,-4.266155 3.847514,-1.535018 8.472504,-1.535018 3.787707,0 6.937485,1.116377 3.169713,1.096441 5.422402,3.169713 2.25269,2.073271 3.428872,4.924019 1.196119,2.830813 1.196119,6.259685 0,2.671331 -0.956895,5.242985 -0.956894,2.551719 -2.751072,4.605055 -1.774242,2.033401 -4.186413,3.229519 -2.412172,1.176183 -5.203114,1.176183 -1.61476,0 -2.511848,-0.538254 -0.897089,-0.558188 -1.196118,-1.754306 -1.734372,1.714436 -3.987061,2.172948 -2.252689,0.438577 -4.365831,-0.418642 -2.113142,-0.877153 -3.428872,-2.930489 -1.295795,-2.053336 -1.295795,-5.063567 0,-3.129842 1.335666,-6.160008 1.3556,-3.030166 3.827578,-4.963891 2.491912,-1.933724 5.621755,-1.933724 3.588354,0 5.26292,2.691266 z M 43.876356,32.271742 q 0,2.392236 0.996765,3.668095 0.996766,1.27586 2.611525,1.27586 1.873918,0 3.289325,-1.495148 1.435342,-1.495148 2.172948,-3.767772 0.737606,-2.29256 0.737606,-4.425637 0,-1.056571 -0.259159,-1.893854 -0.239223,-0.857218 -0.737606,-1.495148 -0.478447,-0.637929 -1.176183,-0.956894 -0.6778,-0.3389 -1.554953,-0.3389 -1.754307,0 -3.169714,1.375535 -1.395471,1.355601 -2.153012,3.548484 -0.757542,2.172948 -0.757542,4.505379 z"
       id="text8"
       style="-inkscape-font-specification:'Arial Rounded MT Bold, ';fill:#d5d8d9;fill-rule:evenodd;stroke:#b3b3b3;stroke-width:0;stroke-linecap:square;stroke-miterlimit:0.8;paint-order:stroke markers fill"
       aria-label="@" />
    <path
       d="m 53.910827,20.823925 0.498382,-2.212819 h 5.26292 l -3.030166,14.293612 q -0.279094,1.355601 -0.279094,1.794177 0,0.458512 0.219288,0.717671 0.239224,0.259159 0.558189,0.259159 1.076506,0 2.771007,-1.395471 1.714436,-1.415407 2.97036,-3.827578 1.275859,-2.432107 1.275859,-5.302791 0,-2.392236 -0.917024,-4.505378 -0.897088,-2.113142 -2.611524,-3.668096 -1.714436,-1.554953 -4.24622,-2.432107 -2.511848,-0.877153 -5.701496,-0.877153 -3.249455,0 -5.960656,0.857218 -2.711201,0.837283 -4.764537,2.432107 -2.053336,1.574889 -3.428872,3.907319 -1.216054,2.033401 -1.853983,4.505379 -0.63793,2.471977 -0.63793,5.043631 0,3.428872 1.355601,6.27962 1.375536,2.830813 3.967125,4.744602 2.611524,1.933725 6.299555,2.731137 3.688031,0.817347 8.332957,0.3389 3.688031,-0.438577 6.23975,-1.674565 2.571654,-1.235989 4.345895,-3.468743 h 4.24622 q -1.036636,2.133077 -2.711201,3.807643 -1.65463,1.674565 -3.887384,2.810877 -2.232754,1.156248 -5.003761,1.754307 -2.771007,0.598059 -6.040397,0.598059 -4.904084,0 -8.831339,-1.295795 -3.927254,-1.275859 -6.61852,-3.707966 -2.671331,-2.412171 -4.046867,-5.761302 -1.375535,-3.369066 -1.375535,-7.435868 0,-4.246219 1.415406,-7.93425 1.415407,-3.688031 4.066802,-6.399233 2.67133,-2.731136 6.498908,-4.266154 3.847514,-1.5350185 8.472504,-1.5350185 3.787707,0 6.937485,1.1163765 3.169713,1.096442 5.422402,3.169713 2.25269,2.073272 3.428872,4.92402 1.196119,2.830813 1.196119,6.259685 0,2.671331 -0.956895,5.242985 -0.956894,2.551718 -2.751072,4.605055 -1.774242,2.0334 -4.186413,3.229519 -2.412172,1.176182 -5.203114,1.176182 -1.61476,0 -2.511848,-0.538253 -0.897089,-0.558188 -1.196118,-1.754306 -1.734372,1.714436 -3.987061,2.172948 -2.252689,0.438576 -4.365831,-0.418642 -2.113142,-0.877153 -3.428872,-2.930489 -1.295795,-2.053336 -1.295795,-5.063567 0,-3.129843 1.335665,-6.160008 1.355601,-3.030166 3.827579,-4.963891 2.491912,-1.933724 5.621755,-1.933724 3.588354,0 5.26292,2.691266 z M 43.006216,31.150411 q 0,2.392237 0.996765,3.668096 0.996765,1.275859 2.611525,1.275859 1.873918,0 3.289325,-1.495147 1.435342,-1.495148 2.172948,-3.767772 0.737606,-2.29256 0.737606,-4.425638 0,-1.056571 -0.259159,-1.893853 -0.239224,-0.857218 -0.737606,-1.495148 -0.478447,-0.63793 -1.176183,-0.956895 -0.6778,-0.3389 -1.554954,-0.3389 -1.754306,0 -3.169713,1.375536 -1.395471,1.355601 -2.153012,3.548484 -0.757542,2.172948 -0.757542,4.505378 z"
       id="text8-3"
       style="-inkscape-font-specification:'Arial Rounded MT Bold, ';fill:#694308;fill-rule:evenodd;stroke:#b3b3b3;stroke-width:0;stroke-linecap:square;stroke-miterlimit:0.8;paint-order:stroke markers fill"
       aria-label="@" />
  </g>
</svg>
